<?xml version="1.0" standalone="no"?>
<!DOCTYPE svg PUBLIC "-//W3C//DTD SVG 20010904//EN"
 "http://www.w3.org/TR/2001/REC-SVG-20010904/DTD/svg10.dtd">
<svg version="1.0" xmlns="http://www.w3.org/2000/svg"
 width="274.000000pt" height="226.000000pt" viewBox="0 0 274.000000 226.000000"
 preserveAspectRatio="xMidYMid meet">

<g transform="translate(0.000000,226.000000) scale(0.100000,-0.100000)"
fill="#ffffff" stroke="none">
<path d="M2317 1935 c-697 -91 -975 -149 -1172 -246 -241 -118 -352 -300 -397
-650 -9 -72 -13 -238 -13 -534 0 -423 0 -430 20 -430 20 0 20 9 26 450 6 497
15 595 70 759 35 104 100 208 167 266 90 77 253 148 459 200 125 31 458 85
773 125 388 49 375 46 375 70 0 29 -16 28 -308 -10z"/>
</g>
</svg>
