<svg width="81" height="19" viewBox="0 0 81 19" fill="none" xmlns="http://www.w3.org/2000/svg">
<path d="M5.13672 0.9375L9.51953 13.3125L13.8789 0.9375H18.4961V18H14.9688V13.3359L15.3203 5.28516L10.7148 18H8.30078L3.70703 5.29688L4.05859 13.3359V18H0.542969V0.9375H5.13672ZM20.8164 11.543C20.8164 10.2852 21.0586 9.16406 21.543 8.17969C22.0273 7.19531 22.7227 6.43359 23.6289 5.89453C24.543 5.35547 25.6016 5.08594 26.8047 5.08594C28.5156 5.08594 29.9102 5.60938 30.9883 6.65625C32.0742 7.70312 32.6797 9.125 32.8047 10.9219L32.8281 11.7891C32.8281 13.7344 32.2852 15.2969 31.1992 16.4766C30.1133 17.6484 28.6562 18.2344 26.8281 18.2344C25 18.2344 23.5391 17.6484 22.4453 16.4766C21.3594 15.3047 20.8164 13.7109 20.8164 11.6953V11.543ZM24.2031 11.7891C24.2031 12.9922 24.4297 13.9141 24.8828 14.5547C25.3359 15.1875 25.9844 15.5039 26.8281 15.5039C27.6484 15.5039 28.2891 15.1914 28.75 14.5664C29.2109 13.9336 29.4414 12.9258 29.4414 11.543C29.4414 10.3633 29.2109 9.44922 28.75 8.80078C28.2891 8.15234 27.6406 7.82812 26.8047 7.82812C25.9766 7.82812 25.3359 8.15234 24.8828 8.80078C24.4297 9.44141 24.2031 10.4375 24.2031 11.7891ZM34.3867 11.5664C34.3867 9.58984 34.8281 8.01562 35.7109 6.84375C36.6016 5.67188 37.8164 5.08594 39.3555 5.08594C40.5898 5.08594 41.6094 5.54688 42.4141 6.46875V0H45.8125V18H42.7539L42.5898 16.6523C41.7461 17.707 40.6602 18.2344 39.332 18.2344C37.8398 18.2344 36.6406 17.6484 35.7344 16.4766C34.8359 15.2969 34.3867 13.6602 34.3867 11.5664ZM37.7734 11.8125C37.7734 13 37.9805 13.9102 38.3945 14.543C38.8086 15.1758 39.4102 15.4922 40.1992 15.4922C41.2461 15.4922 41.9844 15.0508 42.4141 14.168V9.16406C41.9922 8.28125 41.2617 7.83984 40.2227 7.83984C38.5898 7.83984 37.7734 9.16406 37.7734 11.8125ZM54.2734 18.2344C52.4141 18.2344 50.8984 17.6641 49.7266 16.5234C48.5625 15.3828 47.9805 13.8633 47.9805 11.9648V11.6367C47.9805 10.3633 48.2266 9.22656 48.7188 8.22656C49.2109 7.21875 49.9062 6.44531 50.8047 5.90625C51.7109 5.35938 52.7422 5.08594 53.8984 5.08594C55.6328 5.08594 56.9961 5.63281 57.9883 6.72656C58.9883 7.82031 59.4883 9.37109 59.4883 11.3789V12.7617H51.4141C51.5234 13.5898 51.8516 14.2539 52.3984 14.7539C52.9531 15.2539 53.6523 15.5039 54.4961 15.5039C55.8008 15.5039 56.8203 15.0312 57.5547 14.0859L59.2188 15.9492C58.7109 16.668 58.0234 17.2305 57.1562 17.6367C56.2891 18.0352 55.3281 18.2344 54.2734 18.2344ZM53.8867 7.82812C53.2148 7.82812 52.668 8.05469 52.2461 8.50781C51.832 8.96094 51.5664 9.60938 51.4492 10.4531H56.1602V10.1836C56.1445 9.43359 55.9414 8.85547 55.5508 8.44922C55.1602 8.03516 54.6055 7.82812 53.8867 7.82812ZM64.9961 18H61.5977V0H64.9961V18ZM71.3711 18H67.9727V5.32031H71.3711V18ZM67.7734 2.03906C67.7734 1.53125 67.9414 1.11328 68.2773 0.785156C68.6211 0.457031 69.0859 0.292969 69.6719 0.292969C70.25 0.292969 70.7109 0.457031 71.0547 0.785156C71.3984 1.11328 71.5703 1.53125 71.5703 2.03906C71.5703 2.55469 71.3945 2.97656 71.043 3.30469C70.6992 3.63281 70.2422 3.79688 69.6719 3.79688C69.1016 3.79688 68.6406 3.63281 68.2891 3.30469C67.9453 2.97656 67.7734 2.55469 67.7734 2.03906ZM78.2266 2.20312V5.32031H80.3945V7.80469H78.2266V14.1328C78.2266 14.6016 78.3164 14.9375 78.4961 15.1406C78.6758 15.3438 79.0195 15.4453 79.5273 15.4453C79.9023 15.4453 80.2344 15.418 80.5234 15.3633V17.9297C79.8594 18.1328 79.1758 18.2344 78.4727 18.2344C76.0977 18.2344 74.8867 17.0352 74.8398 14.6367V7.80469H72.9883V5.32031H74.8398V2.20312H78.2266Z" fill="#207AC6"/>
</svg>
